Coordinates
version=1
nRows=37
nColumns=38
inDegrees=no

Units are S.I. units (second, meters, Newtons, ...)
If the header above contains a line with 'inDegrees', this indicates whether rotational values are in degrees (yes) or radians (no).

endheader
time	pelvis_tilt	pelvis_list	pelvis_rotation	pelvis_tx	pelvis_ty	pelvis_tz	hip_flexion_r	hip_adduction_r	hip_rotation_r	knee_angle_r	ankle_angle_r	subtalar_angle_r	mtp_angle_r	hip_flexion_l	hip_adduction_l	hip_rotation_l	knee_angle_l	ankle_angle_l	subtalar_angle_l	mtp_angle_l	lumbar_extension	lumbar_bending	lumbar_rotation	arm_flex_r	arm_add_r	arm_rot_r	elbow_flex_r	pro_sup_r	wrist_flex_r	wrist_dev_r	arm_flex_l	arm_add_l	arm_rot_l	elbow_flex_l	pro_sup_l	wrist_flex_l	wrist_dev_l
21.34	2.82218	1.4402	-1.02803	0.729743	-0.484504	0.945994	-0.104664	0.0488281	-0.0688884	0.381304	-0.150771	0	0	-0.0671419	-0.163631	-0.276786	0.400978	-0.109808	0	0	-0.348829	0.023057	0.0302539	0.030396	-0.369515	-0.23065	2.14158	1.5708	0	0	0.405054	-0.434767	0.257952	1.84337	1.5708	0	0
21.35	2.82543	1.44325	-1.0443	0.732815	-0.483944	0.945823	-0.106599	0.047895	-0.0664907	0.370693	-0.150143	0	0	-0.0683388	-0.162646	-0.282756	0.400237	-0.11074	0	0	-0.346653	0.0231589	0.0329646	0.0353976	-0.367614	-0.245213	2.12596	1.5708	0	0	0.402961	-0.435092	0.245825	1.83848	1.5708	0	0
21.36	2.82212	1.44561	-1.05386	0.735949	-0.483381	0.945679	-0.107878	0.0477601	-0.0653835	0.360425	-0.151294	0	0	-0.0686943	-0.163506	-0.288554	0.401706	-0.111597	0	0	-0.344809	0.0241834	0.0358231	0.0413196	-0.364622	-0.25722	2.11024	1.5708	0	0	0.399571	-0.435666	0.232435	1.83441	1.5708	0	0
21.37	2.80853	1.44756	-1.05232	0.739027	-0.482881	0.945609	-0.107505	0.0488709	-0.0650357	0.35268	-0.154103	0	0	-0.0672087	-0.166227	-0.292626	0.405765	-0.112108	0	0	-0.343098	0.0265858	0.0382663	0.0469333	-0.363493	-0.266718	2.09529	1.5708	0	0	0.394985	-0.436397	0.218715	1.83079	1.5708	0	0
21.38	2.78676	1.44879	-1.04219	0.74207	-0.482365	0.945566	-0.106723	0.0512088	-0.0655541	0.346089	-0.158467	0	0	-0.0645311	-0.170982	-0.296856	0.412748	-0.111869	0	0	-0.341708	0.0304419	0.0407118	0.053158	-0.359801	-0.274373	2.08065	1.5708	0	0	0.388777	-0.437235	0.204136	1.82782	1.5708	0	0
21.39	2.76463	1.45037	-1.03084	0.744983	-0.481858	0.945488	-0.105083	0.0532732	-0.0668097	0.341407	-0.162121	0	0	-0.0601373	-0.175738	-0.299673	0.421963	-0.110819	0	0	-0.33997	0.0343497	0.0425768	0.0592299	-0.355762	-0.280453	2.06677	1.5708	0	0	0.381706	-0.438779	0.189467	1.82534	1.5708	0	0
21.4	2.74496	1.45258	-1.02057	0.747668	-0.48133	0.945333	-0.102792	0.0546687	-0.0683747	0.338637	-0.164249	0	0	-0.0540014	-0.179892	-0.300268	0.433039	-0.108572	0	0	-0.337759	0.0379678	0.0431596	0.0652197	-0.351357	-0.284628	2.05288	1.5708	0	0	0.373617	-0.441063	0.174533	1.82321	1.5708	0	0
21.41	2.72818	1.45575	-1.01135	0.750084	-0.480767	0.945069	-0.099773	0.0552028	-0.070968	0.337203	-0.164727	0	0	-0.0458107	-0.183249	-0.298156	0.445701	-0.105922	0	0	-0.334711	0.0411446	0.0421909	0.0708264	-0.346852	-0.28697	2.03908	1.5708	0	0	0.365889	-0.443106	0.160852	1.82017	1.5708	0	0
21.42	2.71182	1.45847	-1.00302	0.752523	-0.480366	0.944856	-0.0966168	0.0562018	-0.0700528	0.337168	-0.164014	0	0	-0.0373311	-0.186752	-0.294736	0.459273	-0.103026	0	0	-0.332774	0.0441588	0.0423679	0.0767307	-0.34286	-0.287685	2.0258	1.5708	0	0	0.359378	-0.443692	0.148445	1.81628	1.5708	0	0
21.43	2.69915	1.46045	-0.998929	0.754995	-0.480092	0.944778	-0.094189	0.0575996	-0.0655383	0.337522	-0.162673	0	0	-0.0293211	-0.190434	-0.289724	0.473645	-0.100024	0	0	-0.332452	0.0468442	0.0436651	0.0829133	-0.339094	-0.286956	2.01324	1.5708	0	0	0.353535	-0.443881	0.136208	1.81244	1.5708	0	0
21.44	2.69447	1.46233	-1.00176	0.75725	-0.479805	0.944763	-0.0926672	0.0583686	-0.0611847	0.337058	-0.161594	0	0	-0.0210537	-0.193545	-0.281144	0.489097	-0.096968	0	0	-0.332896	0.0488615	0.044231	0.0885857	-0.335324	-0.285317	2.00157	1.5708	0	0	0.347383	-0.444696	0.124152	1.80931	1.5708	0	0
21.45	2.69586	1.46421	-1.00919	0.759247	-0.47953	0.944767	-0.0919654	0.0585859	-0.057695	0.335211	-0.160768	0	0	-0.011841	-0.196355	-0.267867	0.505904	-0.0949326	0	0	-0.333888	0.0504831	0.0437257	0.09376	-0.331168	-0.283309	1.99056	1.5708	0	0	0.341155	-0.445736	0.112474	1.80681	1.5708	0	0
21.46	2.69816	1.4663	-1.01665	0.761066	-0.47923	0.944756	-0.0914879	0.0586588	-0.0543828	0.332329	-0.160523	0	0	-0.00112111	-0.199352	-0.250588	0.524051	-0.0953622	0	0	-0.334815	0.051988	0.0427868	0.0981902	-0.326813	-0.28061	1.98004	1.5708	0	0	0.334612	-0.446747	0.101055	1.80473	1.5708	0	0
21.47	2.69801	1.46855	-1.02123	0.762747	-0.478908	0.944723	-0.090936	0.0589379	-0.0507563	0.328957	-0.160665	0	0	0.0107542	-0.202593	-0.2303	0.542076	-0.0980902	0	0	-0.335529	0.0536858	0.0420675	0.101993	-0.322015	-0.276879	1.97008	1.5708	0	0	0.328284	-0.447291	0.0905428	1.80274	1.5708	0	0
21.48	2.69603	1.47099	-1.02308	0.764226	-0.478548	0.944671	-0.0903132	0.0592427	-0.0478944	0.32539	-0.161006	0	0	0.0238266	-0.205311	-0.207296	0.559627	-0.102209	0	0	-0.335912	0.055697	0.0412442	0.105309	-0.317257	-0.271863	1.96085	1.5708	0	0	0.321989	-0.447166	0.0806519	1.80108	1.5708	0	0
21.49	2.69552	1.4736	-1.02592	0.765602	-0.478083	0.944608	-0.0900784	0.0593554	-0.0447208	0.321317	-0.16129	0	0	0.0372849	-0.207032	-0.184019	0.576008	-0.107034	0	0	-0.336045	0.0574045	0.0406355	0.108225	-0.312258	-0.265914	1.95249	1.5708	0	0	0.315218	-0.447275	0.0708844	1.80033	1.5708	0	0
21.5	2.6995	1.47657	-1.03335	0.766962	-0.477586	0.944551	-0.0898019	0.0589437	-0.0394093	0.31757	-0.160911	0	0	0.0505324	-0.20727	-0.161824	0.590699	-0.112985	0	0	-0.336103	0.0582251	0.0407752	0.111119	-0.307149	-0.25881	1.94515	1.5708	0	0	0.309385	-0.446807	0.0622225	1.79893	1.5708	0	0
21.51	2.70513	1.47932	-1.04045	0.767938	-0.476937	0.944531	-0.0904001	0.0583176	-0.0363079	0.313189	-0.160599	0	0	0.0633351	-0.20613	-0.138695	0.603958	-0.119499	0	0	-0.336004	0.0597003	0.0397883	0.113365	-0.302714	-0.251145	1.94042	1.5708	0	0	0.303655	-0.4456	0.0545476	1.79689	1.5708	0	0
21.52	2.71267	1.48266	-1.05039	0.769045	-0.476343	0.9445	-0.0897764	0.057319	-0.0311755	0.310394	-0.160054	0	0	0.0755527	-0.203743	-0.117405	0.615801	-0.125824	0	0	-0.33574	0.0601064	0.0401915	0.115017	-0.298977	-0.244272	1.94086	1.5708	0	0	0.298771	-0.443653	0.0479142	1.79487	1.5708	0	0
21.53	2.73189	1.48495	-1.07272	0.770014	-0.47561	0.944609	-0.0903043	0.0555029	-0.0279269	0.308573	-0.159758	0	0	0.084446	-0.200816	-0.101861	0.624745	-0.130028	0	0	-0.336818	0.0600586	0.0416944	0.115637	-0.296508	-0.239387	1.94786	1.5708	0	0	0.294385	-0.441463	0.0425278	1.79258	1.5708	0	0
21.54	2.75799	1.48693	-1.10168	0.770743	-0.474753	0.944789	-0.0914013	0.0529676	-0.0255921	0.3066	-0.159507	0	0	0.092108	-0.196853	-0.0882027	0.632718	-0.134175	0	0	-0.338118	0.0600418	0.0431466	0.116043	-0.294844	-0.23525	1.95781	1.5708	0	0	0.290324	-0.437354	0.0375768	1.78997	1.5708	0	0
21.55	2.77987	1.48951	-1.12621	0.77159	-0.473957	0.944839	-0.091082	0.0508218	-0.0227815	0.305417	-0.158983	0	0	0.100603	-0.192815	-0.0751905	0.639929	-0.137963	0	0	-0.338866	0.0595828	0.0448928	0.116599	-0.29289	-0.23176	1.96751	1.5708	0	0	0.286578	-0.433902	0.0327168	1.78794	1.5708	0	0
21.56	2.79879	1.49191	-1.1484	0.772335	-0.472986	0.944879	-0.0906436	0.0487914	-0.0209058	0.304418	-0.15861	0	0	0.108284	-0.188769	-0.0639544	0.646029	-0.141073	0	0	-0.33937	0.0593017	0.0475314	0.116563	-0.291172	-0.229998	1.97615	1.5708	0	0	0.281762	-0.430796	0.0273736	1.78669	1.5708	0	0
21.57	2.81458	1.49368	-1.16809	0.773008	-0.471887	0.944924	-0.0906313	0.0472082	-0.0199973	0.303643	-0.158638	0	0	0.114706	-0.18499	-0.0545167	0.651138	-0.143223	0	0	-0.340236	0.059317	0.0511264	0.115723	-0.289088	-0.231073	1.98339	1.5708	0	0	0.276121	-0.428148	0.0214941	1.78605	1.5708	0	0
21.58	2.82457	1.49583	-1.18262	0.773828	-0.470836	0.944854	-0.0894858	0.0461372	-0.0175131	0.30378	-0.15849	0	0	0.121442	-0.181802	-0.0468166	0.655546	-0.145245	0	0	-0.340818	0.0590025	0.0556888	0.114112	-0.285844	-0.234425	1.98928	1.5708	0	0	0.27046	-0.425921	0.0149288	1.78588	1.5708	0	0
21.59	2.83834	1.49714	-1.20177	0.774438	-0.46965	0.944908	-0.0893437	0.0445621	-0.0151349	0.304127	-0.158245	0	0	0.126101	-0.178596	-0.0424234	0.658027	-0.147049	0	0	-0.342148	0.058842	0.0612953	0.111539	-0.282497	-0.238884	1.99506	1.5708	0	0	0.264894	-0.422646	0.00878127	1.78552	1.5708	0	0
21.6	2.85699	1.49842	-1.22608	0.775092	-0.468432	0.944958	-0.0892712	0.0425892	-0.0126457	0.304671	-0.157911	0	0	0.13016	-0.175456	-0.0404756	0.65946	-0.148833	0	0	-0.343572	0.0580615	0.0674395	0.1082	-0.279426	-0.243148	2.00198	1.5708	0	0	0.26042	-0.418299	0.00304588	1.78487	1.5708	0	0
21.61	2.87767	1.49972	-1.25277	0.77575	-0.467165	0.945015	-0.0891933	0.0404196	-0.0103046	0.305274	-0.157448	0	0	0.133706	-0.172427	-0.0403084	0.659499	-0.150566	0	0	-0.344937	0.0569037	0.0741183	0.104655	-0.276947	-0.246691	2.0093	1.5708	0	0	0.256585	-0.413212	-0.00237662	1.78403	1.5708	0	0
21.62	2.89593	1.50105	-1.2775	0.776405	-0.465842	0.945004	-0.0888786	0.0383624	-0.00786195	0.306148	-0.156898	0	0	0.136985	-0.169795	-0.041039	0.658548	-0.152216	0	0	-0.346083	0.055458	0.0811585	0.101273	-0.274791	-0.249543	2.01607	1.5708	0	0	0.25267	-0.40838	-0.00749856	1.78342	1.5708	0	0
21.63	2.91103	1.50254	-1.29961	0.777096	-0.464631	0.944905	-0.0877599	0.036505	-0.00408427	0.307831	-0.15615	0	0	0.140577	-0.167481	-0.042016	0.657044	-0.153509	0	0	-0.347248	0.0537184	0.0883622	0.097958	-0.272859	-0.252215	2.0234	1.5708	0	0	0.248996	-0.404121	-0.0123856	1.78334	1.5708	0	0
21.64	2.92491	1.50338	-1.31862	0.777501	-0.463184	0.944812	-0.0881913	0.0348837	-0.00334251	0.308176	-0.155397	0	0	0.143715	-0.165451	-0.0427505	0.654828	-0.154402	0	0	-0.348316	0.0528235	0.0934864	0.0946815	-0.271	-0.254572	2.02978	1.5708	0	0	0.244688	-0.400385	-0.0171058	1.78371	1.5708	0	0
21.65	2.94168	1.50411	-1.34002	0.777844	-0.461886	0.944697	-0.0884749	0.0331031	-0.0023989	0.308549	-0.154689	0	0	0.146932	-0.163149	-0.0426965	0.651733	-0.155371	0	0	-0.349782	0.0517243	0.0975331	0.0929498	-0.269402	-0.256078	2.03495	1.5708	0	0	0.240779	-0.397284	-0.0219095	1.78499	1.5708	0	0
21.66	2.95989	1.50501	-1.36225	0.778123	-0.460588	0.944531	-0.088308	0.0311424	-0.00165139	0.309669	-0.153481	0	0	0.150325	-0.160902	-0.0426339	0.647361	-0.157162	0	0	-0.350909	0.0503579	0.100245	0.0919241	-0.268069	-0.256601	2.0394	1.5708	0	0	0.236455	-0.394827	-0.0270856	1.78738	1.5708	0	0
21.67	2.97366	1.50631	-1.37968	0.778332	-0.459312	0.944349	-0.0876103	0.0295834	-0.000314626	0.310729	-0.151797	0	0	0.154024	-0.15892	-0.0421536	0.641346	-0.16031	0	0	-0.351468	0.0491589	0.101784	0.091531	-0.267144	-0.255897	2.04339	1.5708	0	0	0.231166	-0.392498	-0.0333226	1.79082	1.5708	0	0
21.68	2.98274	1.50773	-1.39128	0.778365	-0.458032	0.944127	-0.0866036	0.028185	-0.000367514	0.312458	-0.149961	0	0	0.158294	-0.15705	-0.040358	0.635143	-0.16352	0	0	-0.351501	0.0486949	0.101732	0.0917902	-0.266316	-0.254383	2.04672	1.5708	0	0	0.226038	-0.390262	-0.0393303	1.79433	1.5708	0	0
21.69	2.98736	1.50887	-1.3975	0.778251	-0.456778	0.943912	-0.0860358	0.0272732	-0.000851419	0.314264	-0.147938	0	0	0.162399	-0.155251	-0.0371482	0.628323	-0.166675	0	0	-0.351568	0.048818	0.100317	0.0930642	-0.265539	-0.252034	2.04899	1.5708	0	0	0.220097	-0.388552	-0.0464854	1.79893	1.5708	0	0
21.7	2.98773	1.51008	-1.39942	0.778124	-0.455484	0.943688	-0.0858585	0.0269165	-0.000757071	0.315388	-0.145745	0	0	0.166192	-0.15367	-0.0334796	0.620503	-0.17006	0	0	-0.351303	0.0489917	0.0983464	0.0952289	-0.264694	-0.248826	2.04998	1.5708	0	0	0.213359	-0.387367	-0.0545185	1.80421	1.5708	0	0
